<svg width="429" height="380" viewBox="0 0 429 380" fill="none" xmlns="http://www.w3.org/2000/svg">
<path d="M192.127 147.02C175.366 141.595 157.644 137.048 139.533 137.516C112.906 138.208 87.3049 150.616 74.6784 168.955C64.0054 184.496 62.5808 202.76 57.9218 220.041C52.1817 241.331 41.286 261.536 29.6571 281.295C23.4111 291.907 16.8217 302.743 15.7358 314.404C14.2463 330.594 24.0561 346.78 39.5226 357.629C54.9891 368.478 75.5693 374.26 96.247 375.611C107.249 376.325 118.748 375.773 128.544 371.81C138.906 367.634 146.484 359.991 156.888 355.861C166.531 352.038 177.77 351.546 188.587 352.107C202.595 352.816 216.469 355.193 229.914 359.188C244.991 363.699 259 370.191 274.044 374.766C289.089 379.342 305.905 381.931 321.321 378.251C335.794 374.799 347.275 366.288 357.628 357.666C374.311 343.808 389.824 328.597 404.008 312.19C413.359 301.336 422.069 289.875 426.245 277.192C434.222 252.942 423.535 225.484 399.623 208.784C379.813 194.941 353.163 188.83 327.066 185.118C303.265 181.698 275.729 181.359 253.854 172.649C232.991 164.319 214.011 154.101 192.127 147.02Z" fill="#44406D"/>
<path opacity="0.1" d="M405.782 229.661C411.704 229.661 416.506 229.003 416.506 228.19C416.506 227.378 411.704 226.719 405.782 226.719C399.859 226.719 395.058 227.378 395.058 228.19C395.058 229.003 399.859 229.661 405.782 229.661Z" fill="#FFFDEE"/>
<path opacity="0.1" d="M364.701 233.828C370.623 233.828 375.425 233.17 375.425 232.357C375.425 231.545 370.623 230.886 364.701 230.886C358.778 230.886 353.977 231.545 353.977 232.357C353.977 233.17 358.778 233.828 364.701 233.828Z" fill="#FFFDEE"/>
<path opacity="0.1" d="M316.31 228.19C322.233 228.19 327.034 227.532 327.034 226.719C327.034 225.907 322.233 225.248 316.31 225.248C310.387 225.248 305.586 225.907 305.586 226.719C305.586 227.532 310.387 228.19 316.31 228.19Z" fill="#FFFDEE"/>
<path opacity="0.1" d="M381.142 245.267C385.353 245.267 388.766 244.798 388.766 244.218C388.766 243.639 385.353 243.17 381.142 243.17C376.931 243.17 373.518 243.639 373.518 244.218C373.518 244.798 376.931 245.267 381.142 245.267Z" fill="#FFFDEE"/>
<path opacity="0.1" d="M338.505 244.218C342.716 244.218 346.129 243.749 346.129 243.17C346.129 242.59 342.716 242.121 338.505 242.121C334.294 242.121 330.881 242.59 330.881 243.17C330.881 243.749 334.294 244.218 338.505 244.218Z" fill="#FFFDEE"/>
<path d="M364.469 232.023C364.469 232.023 379.513 182.714 362.116 162.964C349.123 148.189 334.329 149.971 327.717 151.786C326.005 152.241 324.413 153.063 323.051 154.196C321.689 155.328 320.589 156.743 319.828 158.342C317.508 163.331 317.935 171.428 334.26 180.881C361.597 196.71 363.3 218.422 363.3 218.422L364.469 232.023Z" fill="white"/>
<path fill-rule="evenodd" clip-rule="evenodd" d="M329.92 159.256L330.069 158.779C330.218 158.301 330.219 158.302 330.22 158.302L330.222 158.302L330.229 158.305L330.255 158.313C330.278 158.321 330.312 158.332 330.355 158.346C330.442 158.375 330.569 158.419 330.734 158.478C331.064 158.597 331.543 158.778 332.147 159.029C333.355 159.53 335.066 160.312 337.086 161.436C341.124 163.684 346.403 167.305 351.369 172.799C361.317 183.804 369.959 202.27 364.962 232.106L363.976 231.941C368.923 202.397 360.365 184.241 350.627 173.469C345.75 168.074 340.565 164.517 336.599 162.31C334.617 161.206 332.941 160.441 331.764 159.952C331.175 159.708 330.711 159.533 330.395 159.419C330.238 159.363 330.117 159.321 330.037 159.294C329.997 159.281 329.967 159.271 329.947 159.265L329.926 159.258L329.921 159.256L329.92 159.256Z" fill="#565987"/>
<path fill-rule="evenodd" clip-rule="evenodd" d="M355.682 163.334C355.683 163.334 355.683 163.334 355.962 163.749C356.242 164.163 356.242 164.163 356.242 164.163L356.24 164.164L356.23 164.171C356.22 164.178 356.205 164.189 356.185 164.203C356.145 164.232 356.084 164.276 356.007 164.335C355.852 164.453 355.631 164.63 355.37 164.862C354.848 165.327 354.173 166.007 353.557 166.87C352.327 168.594 351.36 171.006 352.263 173.897L351.309 174.195C350.281 170.904 351.403 168.168 352.743 166.289C353.413 165.35 354.144 164.615 354.706 164.115C354.987 163.864 355.228 163.671 355.4 163.54C355.486 163.474 355.555 163.424 355.603 163.39C355.627 163.372 355.646 163.359 355.66 163.35L355.676 163.339L355.68 163.336L355.682 163.334Z" fill="#565987"/>
<path fill-rule="evenodd" clip-rule="evenodd" d="M334.876 167.76C334.877 167.76 334.877 167.759 334.519 167.41C334.162 167.06 334.162 167.06 334.162 167.06L334.163 167.059L334.164 167.058L334.167 167.055L334.178 167.044C334.186 167.036 334.199 167.023 334.215 167.008C334.247 166.977 334.293 166.933 334.353 166.88C334.471 166.772 334.644 166.624 334.865 166.453C335.307 166.113 335.946 165.682 336.737 165.319C338.324 164.591 340.55 164.128 343.002 165.252L342.585 166.161C340.475 165.193 338.564 165.581 337.154 166.228C336.447 166.552 335.873 166.939 335.476 167.246C335.278 167.398 335.125 167.53 335.023 167.622C334.972 167.668 334.934 167.704 334.909 167.728C334.897 167.74 334.888 167.748 334.882 167.754L334.877 167.759L334.876 167.76Z" fill="#565987"/>
<path fill-rule="evenodd" clip-rule="evenodd" d="M352.272 186.951C352.272 186.951 352.272 186.951 352.046 186.505C351.82 186.059 351.82 186.059 351.82 186.059L351.822 186.058L351.827 186.056L351.843 186.048C351.857 186.041 351.877 186.031 351.903 186.019C351.955 185.994 352.029 185.958 352.125 185.915C352.314 185.829 352.586 185.712 352.917 185.584C353.576 185.331 354.482 185.034 355.451 184.871C356.414 184.71 357.482 184.674 358.442 184.982C359.425 185.298 360.272 185.97 360.755 187.157L359.829 187.534C359.465 186.64 358.858 186.166 358.136 185.934C357.391 185.695 356.503 185.709 355.617 185.857C354.736 186.005 353.898 186.278 353.276 186.518C352.966 186.637 352.712 186.747 352.537 186.826C352.45 186.866 352.382 186.898 352.337 186.919C352.315 186.93 352.298 186.939 352.287 186.944L352.275 186.95L352.272 186.951Z" fill="#565987"/>
<path fill-rule="evenodd" clip-rule="evenodd" d="M368.303 192.94C368.304 192.94 368.304 192.94 368.264 193.438C368.225 193.937 368.225 193.937 368.225 193.937L368.223 193.936L368.214 193.936L368.177 193.933C368.144 193.931 368.094 193.928 368.03 193.925C367.902 193.92 367.717 193.914 367.494 193.914C367.046 193.914 366.456 193.938 365.87 194.031C365.275 194.125 364.728 194.284 364.337 194.526C363.962 194.759 363.766 195.042 363.752 195.42L362.753 195.382C362.783 194.584 363.236 194.033 363.809 193.677C364.366 193.331 365.066 193.146 365.713 193.043C366.369 192.94 367.015 192.914 367.493 192.914C367.733 192.914 367.934 192.92 368.075 192.926C368.146 192.93 368.202 192.933 368.24 192.935L368.286 192.938L368.298 192.939L368.302 192.939L368.303 192.94Z" fill="#565987"/>
<path d="M365.077 232.418C365.077 232.418 347.443 196.58 342.622 197.364C340.302 197.735 339.262 200 338.784 202.269C338.19 205.206 338.526 208.255 339.745 210.993C342.246 216.728 348.961 227.619 365.077 232.418Z" fill="white"/>
<path fill-rule="evenodd" clip-rule="evenodd" d="M342.34 204.451C342.34 204.451 342.34 204.451 342.751 204.167C343.163 203.883 343.163 203.883 343.163 203.883L343.371 204.183C343.507 204.38 343.707 204.668 343.963 205.035C344.475 205.77 345.211 206.821 346.105 208.086C347.893 210.616 350.314 214.002 352.846 217.423C355.379 220.846 358.018 224.298 360.245 226.967C361.359 228.302 362.364 229.432 363.196 230.263C363.612 230.678 363.978 231.012 364.289 231.256C364.609 231.508 364.835 231.637 364.973 231.683L364.66 232.633C364.351 232.531 364.014 232.313 363.671 232.042C363.318 231.764 362.921 231.401 362.489 230.971C361.626 230.109 360.6 228.952 359.477 227.607C357.232 224.917 354.579 221.446 352.042 218.018C349.504 214.589 347.079 211.197 345.288 208.663C344.393 207.396 343.656 206.343 343.143 205.607C342.886 205.239 342.685 204.95 342.549 204.753L342.34 204.451Z" fill="#565987"/>
<path fill-rule="evenodd" clip-rule="evenodd" d="M345.368 208.852H341.053V207.852H345.368V208.852Z" fill="#565987"/>
<path fill-rule="evenodd" clip-rule="evenodd" d="M352.967 218.95L346.201 218.662L346.244 217.663L353.009 217.95L352.967 218.95Z" fill="#565987"/>
<path fill-rule="evenodd" clip-rule="evenodd" d="M349.116 213.736L349.849 210.213L350.828 210.417L350.095 213.939L349.116 213.736Z" fill="#565987"/>
<path fill-rule="evenodd" clip-rule="evenodd" d="M356.902 224.221L357.032 221.019L358.031 221.06L357.902 224.262L356.902 224.221Z" fill="#565987"/>
<path d="M364.557 232.418C364.557 232.418 382.19 196.58 387.012 197.364C389.332 197.735 390.371 200 390.849 202.269C391.443 205.206 391.107 208.255 389.889 210.993C387.388 216.728 380.673 227.619 364.557 232.418Z" fill="white"/>
<path fill-rule="evenodd" clip-rule="evenodd" d="M386.47 203.883C386.47 203.883 386.471 203.883 386.882 204.167C387.294 204.451 387.294 204.451 387.293 204.451L387.084 204.753C386.948 204.95 386.747 205.239 386.491 205.607C385.978 206.343 385.241 207.396 384.345 208.663C382.554 211.197 380.129 214.589 377.591 218.018C375.055 221.446 372.401 224.917 370.156 227.607C369.034 228.952 368.007 230.109 367.144 230.971C366.713 231.401 366.316 231.764 365.963 232.042C365.619 232.313 365.282 232.531 364.973 232.633L364.66 231.683C364.798 231.637 365.024 231.508 365.344 231.256C365.655 231.012 366.021 230.678 366.438 230.263C367.27 229.432 368.274 228.302 369.388 226.967C371.615 224.298 374.255 220.846 376.787 217.423C379.319 214.002 381.74 210.616 383.529 208.086C384.423 206.821 385.158 205.77 385.67 205.035C385.926 204.668 386.127 204.38 386.263 204.183L386.47 203.884L386.47 203.883Z" fill="#565987"/>
<path fill-rule="evenodd" clip-rule="evenodd" d="M384.265 207.852H388.58V208.852H384.265V207.852Z" fill="#565987"/>
<path fill-rule="evenodd" clip-rule="evenodd" d="M376.624 217.95L383.39 217.663L383.432 218.662L376.667 218.95L376.624 217.95Z" fill="#565987"/>
<path fill-rule="evenodd" clip-rule="evenodd" d="M379.539 213.939L378.806 210.417L379.785 210.213L380.518 213.736L379.539 213.939Z" fill="#565987"/>
<path fill-rule="evenodd" clip-rule="evenodd" d="M371.732 224.262L371.598 221.06L372.597 221.018L372.731 224.22L371.732 224.262Z" fill="#565987"/>
<path d="M334.306 240.789C333.828 240.397 333.479 239.87 333.304 239.276C333.226 238.977 333.254 238.661 333.381 238.38C333.509 238.099 333.729 237.87 334.005 237.731C334.65 237.485 335.336 237.93 335.861 238.385C336.385 238.84 336.979 239.346 337.661 239.253C337.311 238.935 337.049 238.531 336.901 238.081C336.753 237.631 336.724 237.151 336.817 236.687C336.845 236.494 336.925 236.313 337.049 236.162C337.406 235.782 338.056 235.949 338.483 236.246C339.842 237.207 340.223 239.053 340.232 240.715C340.298 240.098 340.298 239.476 340.232 238.859C340.206 238.551 340.255 238.242 340.375 237.958C340.496 237.674 340.684 237.424 340.924 237.23C341.246 237.053 341.61 236.967 341.977 236.979C342.281 236.936 342.59 236.957 342.885 237.041C343.18 237.125 343.454 237.27 343.689 237.466C344.204 238.023 344.07 238.956 343.62 239.569C343.113 240.129 342.516 240.6 341.852 240.961C341.343 241.261 340.91 241.674 340.585 242.167C340.548 242.236 340.517 242.307 340.492 242.381H336.659C335.807 241.958 335.015 241.423 334.306 240.789Z" fill="white"/>
<path d="M401.439 226.353C400.958 225.962 400.609 225.434 400.436 224.84C400.359 224.542 400.387 224.226 400.514 223.946C400.642 223.665 400.862 223.437 401.137 223.299C401.782 223.053 402.469 223.499 402.993 223.949C403.518 224.399 404.116 224.914 404.798 224.817C404.447 224.499 404.183 224.096 404.034 223.646C403.886 223.196 403.856 222.715 403.949 222.251C403.977 222.058 404.059 221.878 404.186 221.731C404.543 221.35 405.188 221.513 405.615 221.814C406.975 222.77 407.355 224.599 407.365 226.283C407.433 225.666 407.433 225.044 407.365 224.427C407.338 224.12 407.387 223.81 407.508 223.527C407.628 223.243 407.817 222.992 408.056 222.798C408.38 222.626 408.743 222.541 409.109 222.552C409.411 222.505 409.72 222.521 410.015 222.601C410.31 222.681 410.585 222.823 410.822 223.016C411.341 223.568 411.207 224.501 410.752 225.114C410.249 225.685 409.651 226.166 408.984 226.534C408.476 226.834 408.042 227.247 407.717 227.74C407.679 227.808 407.648 227.879 407.624 227.954H403.791C402.939 227.527 402.148 226.989 401.439 226.353Z" fill="white"/>
<path d="M379.063 240.789C378.585 240.397 378.235 239.87 378.061 239.276C377.983 238.977 378.011 238.661 378.138 238.38C378.266 238.099 378.486 237.87 378.761 237.731C379.406 237.485 380.093 237.93 380.618 238.385C381.142 238.84 381.736 239.346 382.418 239.253C382.067 238.935 381.805 238.531 381.656 238.082C381.507 237.632 381.477 237.151 381.569 236.687C381.601 236.495 381.683 236.314 381.806 236.162C382.163 235.782 382.813 235.949 383.24 236.246C384.599 237.207 384.98 239.053 384.989 240.715C385.063 240.099 385.071 239.476 385.012 238.859C384.986 238.551 385.035 238.242 385.155 237.958C385.276 237.674 385.464 237.424 385.704 237.23C386.026 237.053 386.39 236.967 386.757 236.979C387.061 236.936 387.37 236.957 387.665 237.041C387.96 237.125 388.234 237.27 388.469 237.466C388.984 238.023 388.85 238.956 388.4 239.569C387.893 240.129 387.296 240.6 386.632 240.961C386.123 241.261 385.69 241.674 385.365 242.167C385.328 242.236 385.297 242.307 385.272 242.381H381.439C380.579 241.96 379.779 241.425 379.063 240.789Z" fill="white"/>
<path d="M315.614 211.61C315.614 211.61 314.175 213.489 316.278 216.325C318.38 219.16 320.106 221.559 319.41 223.327C319.41 223.327 316.24 218.06 313.66 217.986C311.08 217.912 312.774 214.779 315.614 211.61Z" fill="white"/>
<path opacity="0.1" d="M315.614 211.61C315.487 211.791 315.387 211.989 315.317 212.199C312.802 215.155 311.461 217.916 313.879 217.986C316.134 218.051 318.839 222.079 319.484 223.09C319.484 223.169 319.438 223.248 319.41 223.322C319.41 223.322 316.241 218.056 313.66 217.981C311.08 217.907 312.774 214.779 315.614 211.61Z" fill="black"/>
<path d="M312.941 214.004C312.941 214.668 313.016 215.202 313.108 215.202C313.201 215.202 313.271 214.668 313.271 214.004C313.271 213.341 313.178 213.656 313.09 213.656C313.002 213.656 312.941 213.345 312.941 214.004Z" fill="#FFD037"/>
<path d="M312.023 214.793C312.603 215.114 313.113 215.304 313.155 215.225C313.197 215.146 312.765 214.821 312.185 214.506C311.605 214.19 311.832 214.417 311.786 214.506C311.74 214.594 311.443 214.478 312.023 214.793Z" fill="#FFD037"/>
<path d="M323.202 211.61C323.202 211.61 324.64 213.489 322.538 216.325C320.436 219.16 318.71 221.559 319.41 223.327C319.41 223.327 322.575 218.06 325.155 217.986C327.735 217.912 326.042 214.779 323.202 211.61Z" fill="white"/>
<path opacity="0.1" d="M323.201 211.61C323.328 211.791 323.428 211.989 323.498 212.199C326.013 215.155 327.354 217.916 324.937 217.986C322.681 218.051 319.976 222.079 319.331 223.09C319.352 223.169 319.379 223.247 319.41 223.322C319.41 223.322 322.575 218.056 325.155 217.981C327.735 217.907 326.041 214.779 323.201 211.61Z" fill="black"/>
<path d="M325.874 214.004C325.874 214.668 325.8 215.202 325.707 215.202C325.615 215.202 325.545 214.668 325.545 214.004C325.545 213.341 325.638 213.656 325.726 213.656C325.814 213.656 325.874 213.345 325.874 214.004Z" fill="#FFD037"/>
<path d="M326.793 214.793C326.213 215.114 325.703 215.304 325.661 215.225C325.619 215.146 326.051 214.821 326.631 214.506C327.211 214.19 326.984 214.417 327.03 214.506C327.076 214.594 327.373 214.478 326.793 214.793Z" fill="#FFD037"/>
<path d="M325.414 223.081C325.414 223.081 321.4 222.96 320.189 222.097C318.978 221.234 314.008 220.204 313.693 221.587C313.377 222.97 307.66 228.464 312.189 228.501C316.718 228.538 322.732 227.796 323.939 227.058C325.145 226.32 325.414 223.081 325.414 223.081Z" fill="#A8A8A8"/>
<path opacity="0.2" d="M312.124 228.019C316.658 228.056 322.663 227.313 323.874 226.575C324.802 226.019 325.159 224.005 325.266 223.076H325.396C325.396 223.076 325.145 226.325 323.934 227.053C322.723 227.782 316.723 228.534 312.185 228.496C310.876 228.496 310.426 228.032 310.449 227.332C310.649 227.754 311.15 228.014 312.124 228.019Z" fill="black"/>
<path d="M59.8566 38.1182C65.4 38.1182 69.8938 33.6244 69.8938 28.0809C69.8938 22.5375 65.4 18.0437 59.8566 18.0437C54.3132 18.0437 49.8193 22.5375 49.8193 28.0809C49.8193 33.6244 54.3132 38.1182 59.8566 38.1182Z" fill="#F32D5F"/>
<path d="M233.46 22.2759C239.004 22.2759 243.497 17.782 243.497 12.2386C243.497 6.69509 239.004 2.20123 233.46 2.20123C227.917 2.20123 223.423 6.69509 223.423 12.2386C223.423 17.782 227.917 22.2759 233.46 22.2759Z" fill="#44406D"/>
<path d="M392.696 61.9283C398.24 61.9283 402.734 57.4344 402.734 51.891C402.734 46.3476 398.24 41.8537 392.696 41.8537C387.153 41.8537 382.659 46.3476 382.659 51.891C382.659 57.4344 387.153 61.9283 392.696 61.9283Z" fill="#F32D5F"/>
<path d="M16.8216 136.936C26.1119 136.936 33.6431 129.405 33.6431 120.115C33.6431 110.824 26.1119 103.293 16.8216 103.293C7.53127 103.293 0 110.824 0 120.115C0 129.405 7.53127 136.936 16.8216 136.936Z" fill="#44406D"/>
<path d="M32.9466 220C42.2369 220 49.7681 212.469 49.7681 203.178C49.7681 193.888 42.2369 186.357 32.9466 186.357C23.6563 186.357 16.125 193.888 16.125 203.178C16.125 212.469 23.6563 220 32.9466 220Z" fill="#579BB0"/>
<path d="M347.995 146.732C357.286 146.732 364.817 139.201 364.817 129.911C364.817 120.62 357.286 113.089 347.995 113.089C338.705 113.089 331.174 120.62 331.174 129.911C331.174 139.201 338.705 146.732 347.995 146.732Z" fill="#44406D"/>
<path d="M208.894 161.41C208.3 161.466 207.696 161.438 207.107 161.53C206.118 161.727 205.174 162.107 204.323 162.649C200.1 165.053 196.114 168.357 194.364 172.886C194.221 173.164 194.175 173.483 194.235 173.791C194.338 174.044 194.508 174.265 194.726 174.431L196.369 175.925C196.577 176.141 196.824 176.314 197.098 176.436C197.541 176.551 198.008 176.537 198.443 176.394C202.959 175.359 207.757 174.166 210.926 170.788C212.43 169.187 213.817 166.983 216.031 166.923C216.959 166.923 217.826 167.28 218.741 167.387C219.655 167.493 220.755 167.104 220.973 166.213C221.043 165.77 220.992 165.316 220.824 164.899L219.46 160.356C219.089 159.113 215.344 159.048 214.096 159.271C212.193 159.6 210.912 161.224 208.894 161.41Z" fill="#65617D"/>
<path d="M224.968 187.002C224.903 188.556 225.028 190.129 224.773 191.67C224.548 192.885 224.16 194.064 223.618 195.174C222.783 196.959 221.722 198.629 220.462 200.144C219.288 201.536 217.882 202.844 216.142 203.392C214.402 203.939 212.262 203.545 211.177 202.079C210.29 200.886 210.248 199.294 210.313 197.805C210.471 194.143 211.047 190.431 212.689 187.155C213.395 185.763 214.29 184.436 215.01 183.03C216.513 180.111 217.371 176.649 219.965 174.635C221.593 175.387 223.333 175.865 225.116 176.05C225.808 176.125 227.785 176.171 228.017 177.057C228.174 177.656 226.875 179.331 226.625 179.921C225.634 182.156 225.072 184.559 224.968 187.002Z" fill="#65617D"/>
<path d="M206.573 120.077C207.13 121.497 207.835 122.89 207.965 124.402C208.058 125.33 207.965 126.258 207.965 127.187C208.043 128.458 208.255 129.718 208.596 130.945L211.181 141.526C211.566 143.108 211.951 144.732 211.752 146.347C211.617 147.424 211.227 148.468 211.232 149.549C211.281 150.369 211.412 151.182 211.622 151.976C212.111 154.429 211.977 156.966 211.232 159.354C211.156 159.534 211.129 159.731 211.153 159.925C211.218 160.226 211.511 160.412 211.775 160.556C214.558 162.078 217.591 163.089 220.731 163.54C223.565 156.798 225.545 149.728 226.624 142.495C227.283 138.115 227.604 133.679 228.448 129.33C228.467 129.079 228.574 128.843 228.75 128.662C229.065 128.398 229.543 128.565 229.914 128.741C234.657 131.022 239.219 133.659 243.562 136.63C245.089 134.652 246.163 132.363 246.707 129.925C247.252 127.486 247.254 124.958 246.713 122.518C246.167 120.415 245.389 118.379 244.393 116.449C243.331 114.1 242.008 111.879 240.448 109.827C237.005 105.511 231.956 102.755 226.759 100.885C223.599 99.7431 220.346 98.8985 217.098 98.0354C215.279 97.5482 212.23 95.9611 210.462 97.1955C208.606 98.4809 207.371 101.669 206.61 103.692C205.671 106.202 205.159 108.851 205.097 111.53C205.021 114.448 205.523 117.353 206.573 120.077Z" fill="#3F3D56"/>
<path d="M243.878 132.834C242.908 133.892 243.725 135.581 243.539 137.01C243.418 137.656 243.187 138.276 242.857 138.843L238.416 147.563C237.674 148.871 237.118 150.277 236.764 151.739C236.156 154.885 237.405 158.421 235.808 161.201C235.293 162.097 234.495 162.867 234.282 163.878C234.124 164.616 234.282 165.387 234.203 166.134C234.096 167.011 233.627 167.8 233.368 168.644C233.165 169.456 233.021 170.281 232.936 171.113C232.373 174.662 230.515 177.876 227.72 180.134C226.119 181.491 224.063 182.191 221.966 182.092C219.896 181.916 217.841 180.51 217.418 178.477C217.275 177.786 217.302 177.016 216.871 176.454C216.258 175.651 214.968 175.619 214.379 174.797L216.662 171.039C217.372 169.874 218.096 168.658 218.212 167.298C218.351 165.633 217.548 163.971 217.836 162.324C218.082 160.909 219.098 159.73 219.404 158.329C219.785 156.588 219.024 154.83 218.611 153.094C217.599 148.82 218.732 144.365 219.859 140.101C221.358 134.458 222.894 128.727 225.929 123.739C231.985 127.001 237.553 130.133 243.878 132.834Z" fill="#3F3D56"/>
<path d="M243.934 44.4431C244.296 45.4269 244.101 46.5174 244.032 47.5615C243.869 49.8817 244.361 52.2019 244.25 54.5546C244.138 56.9073 243.414 59.1533 242.913 61.441C241.489 67.9701 241.832 74.7729 240.542 81.3299C238.95 89.4506 234.881 97.0145 234.078 105.256C233.823 107.873 233.855 110.676 232.421 112.885C223.901 109.134 215.846 104.403 208.421 98.7872C210.054 86.671 211.669 74.4945 211.451 62.2716C211.345 60.7981 211.449 59.3171 211.757 57.8725C212.145 56.659 212.701 55.5062 213.409 54.4479C215.205 51.529 217.182 48.7262 219.154 45.928C220.416 44.1368 221.781 42.2574 223.795 41.4175C225.809 40.5776 228.194 40.9535 230.389 41.3526C233.031 41.8352 235.67 42.3178 238.305 42.8004C239.953 43.102 243.229 42.5266 243.934 44.4431Z" fill="#FFFDEE"/>
<path d="M180.392 90.8707C179.309 89.7877 178.129 88.8075 176.865 87.9426C178.513 85.9379 178.188 83.0376 178.591 80.4715C178.922 78.8046 179.424 77.1764 180.09 75.6129C180.257 75.1721 180.494 74.6849 180.953 74.5688C181.236 74.5339 181.522 74.579 181.779 74.6988C183.172 75.1907 186.076 75.1628 187.158 76.0631C188.462 77.1582 187.269 79.4506 186.777 80.8195C186.429 81.7383 181.083 91.5667 180.392 90.8707Z" fill="#BE6F72"/>
<path d="M184.434 177.531C185.133 178.662 185.589 179.926 185.775 181.243C185.886 182.561 185.404 184.004 184.281 184.7C183.158 185.396 181.547 185.164 180.211 184.747C177.376 183.825 174.768 182.315 172.557 180.316C170.346 178.317 168.582 175.873 167.38 173.145C166.958 172.171 166.591 171.136 165.844 170.384C165.289 169.897 164.673 169.483 164.011 169.155C162.188 168.125 160.429 166.77 159.584 164.848C158.74 162.927 159.12 160.361 160.87 159.22C161.415 158.905 162.017 158.701 162.642 158.622C163.267 158.542 163.901 158.587 164.508 158.755C165.717 159.099 166.875 159.603 167.951 160.254C169.751 161.233 171.951 162.078 173.519 163.382C174.912 164.528 176.16 166.078 177.348 167.428C178.708 168.982 179.983 170.609 181.167 172.301C181.547 172.797 184.754 177.081 184.434 177.531Z" fill="#65617D"/>
<path d="M150.417 167.79C150.259 170.125 149.847 172.436 149.188 174.681C148.812 175.944 148.315 177.257 147.272 178.06C146.389 178.632 145.388 178.999 144.344 179.132C143.98 179.23 143.6 179.254 143.226 179.201C142.586 179.067 142.131 178.514 141.737 177.99C140.187 175.939 138.679 173.772 138.025 171.285C137.097 167.679 138.025 163.814 139.635 160.445C140.214 159.087 141.058 157.858 142.117 156.83C143.426 155.754 144.999 155.047 146.673 154.783C148.385 154.44 150.487 153.707 150.612 155.79C150.795 159.791 150.73 163.798 150.417 167.79Z" fill="#65617D"/>
<path d="M176.095 80.5689C179.297 82.2255 182.852 84.3323 183.52 87.8729C183.933 90.0354 183.14 92.2489 183.27 94.4484C183.386 96.3835 184.198 98.2536 184.096 100.184C183.987 101.096 183.832 102.002 183.632 102.899C183.358 104.611 183.52 106.356 183.451 108.087C183.298 111.985 181.994 115.734 181.362 119.581C180.916 122.328 180.811 125.119 181.052 127.892C181.205 129.683 181.516 131.465 181.516 133.266C181.516 134.562 181.409 135.857 181.195 137.136C180.573 141.154 179.32 145.049 177.483 148.677C175.251 153.071 175.566 158.742 175.803 163.665C175.906 164.344 175.82 165.038 175.552 165.67C174.968 166.732 173.511 166.886 172.304 166.783C167.83 166.375 163.68 164.273 160.703 160.909C160.268 160.486 159.974 159.94 159.858 159.345C159.756 158.352 160.554 157.535 161.13 156.714C163.088 153.929 162.591 150.157 162.823 146.737C162.993 144.249 163.588 141.808 164.582 139.521C165.158 138.198 165.877 136.894 166.007 135.456C166.128 134.115 165.719 132.788 165.315 131.507L163.923 127.089C161.765 120.226 159.594 113.321 156.327 106.913C154.183 108.307 152.649 110.463 152.034 112.945C150.818 117.316 152.549 122.198 150.893 126.402C150.618 126.985 150.39 127.589 150.21 128.208C150.113 128.742 150.076 129.285 150.099 129.827C150.142 134.35 150.418 138.868 150.925 143.363C150.95 144.044 151.141 144.708 151.482 145.298C151.756 145.693 152.155 145.985 152.447 146.361C153.259 147.414 153.106 148.89 152.911 150.203L151.983 156.412C151.967 156.727 151.862 157.031 151.682 157.289C151.463 157.501 151.19 157.649 150.893 157.716C147.944 158.632 144.835 158.916 141.769 158.551C140.864 158.445 140.043 157.837 139.287 157.326C139.208 156.398 140.363 155.781 140.405 154.858C140.36 154.31 140.106 153.802 139.695 153.438C137.969 151.489 135.908 149.419 135.927 146.816C135.927 146.134 136.089 145.451 136.066 144.769C136.006 143.02 134.799 141.521 134.377 139.836C133.857 137.753 134.549 135.591 134.813 133.461C135.175 130.593 134.748 127.688 134.349 124.825L132.795 114.319C132.614 112.688 132.291 111.076 131.829 109.502C131.244 107.952 130.557 106.442 129.774 104.982C128.289 101.966 127.068 98.829 125.852 95.7014C125.466 94.8516 125.223 93.9437 125.133 93.0145C125.063 91.4229 125.885 89.9194 126.906 88.6943C128.818 86.4177 131.428 84.8356 134.331 84.1931C134.816 84.0578 135.326 84.0371 135.82 84.1328C136.236 84.2707 136.626 84.4761 136.976 84.7407C140.563 87.0869 144.645 88.5705 148.901 89.0753C153.158 89.5801 157.474 89.0923 161.51 87.6502C161.974 88.0029 162.833 87.8497 163.366 87.5992C164.856 86.917 166.072 85.7801 167.38 84.8149C169.817 82.968 173.102 81.2139 176.095 80.5689Z" fill="#3F3D56"/>
<path d="M79.9127 199.74C80.1591 200.451 80.5299 201.112 81.0079 201.693C82.6877 203.884 85.0311 205.633 86.1123 208.19C86.3397 208.738 86.5068 209.313 86.7156 209.87C87.3507 211.55 88.386 213.051 89.7319 214.241C90.7585 215.093 91.874 215.832 93.0591 216.445C95.1101 217.564 97.3283 218.575 99.6578 218.515C100.126 218.505 100.592 218.449 101.05 218.348C101.775 218.198 102.474 217.941 103.124 217.587C104.623 216.761 105.908 215.146 105.611 213.462C105.551 213.14 105.45 212.828 105.31 212.533C105.064 212.064 104.78 211.616 104.461 211.192C103.676 210.107 102.869 208.993 101.723 208.297C100.433 207.508 98.8085 207.313 97.6484 206.338C97.1907 205.924 96.7953 205.446 96.4744 204.919C95.4229 203.302 94.6394 201.527 94.1542 199.661C93.8015 198.269 93.5649 196.742 92.5486 195.721C91.5324 194.7 90.1356 194.468 88.7806 194.236C88.3227 194.142 87.856 194.097 87.3885 194.102C86.7249 194.125 86.0381 194.315 85.4163 194.004C84.7945 193.693 84.5856 193.252 83.8339 193.313C83.2355 193.393 82.6715 193.639 82.2051 194.023C80.4417 195.327 79.2723 197.647 79.9127 199.74Z" fill="#3F3D56"/>
<path d="M96.4007 201.851C96.7024 203.424 97.1664 205.099 98.3822 206.125C99.1572 206.793 100.238 207.211 100.624 208.153C101.009 209.095 100.512 210.278 99.8718 211.141C99.0541 212.233 98.0408 213.163 96.8833 213.884C95.8996 214.492 94.7255 214.956 93.5979 214.687C92.6698 214.468 91.9366 213.8 91.2452 213.155C89.6582 211.684 88.034 210.158 87.1431 208.185C86.215 206.106 86.1686 203.698 85.157 201.652C84.5676 200.459 83.6581 199.415 83.3008 198.134C83.1406 197.671 83.1406 197.168 83.3008 196.705C83.4738 196.374 83.7356 196.097 84.0569 195.906C84.3781 195.715 84.7462 195.617 85.1198 195.624C85.867 195.649 86.6038 195.806 87.2962 196.088C89.3912 196.835 91.5356 197.435 93.7139 197.884C94.5817 198.046 95.106 198.041 95.5701 198.881C95.9988 199.822 96.279 200.824 96.4007 201.851Z" fill="#FBBEBE"/>
<path d="M101.783 215.151C101.439 215.677 101.196 216.262 101.064 216.877C100.955 217.355 100.937 217.849 101.013 218.334C101.738 218.184 102.437 217.927 103.087 217.573C104.586 216.747 105.872 215.132 105.575 213.448C105.515 213.126 105.413 212.815 105.273 212.52C105.052 212.47 104.821 212.479 104.604 212.547C104.388 212.615 104.193 212.738 104.039 212.905C103.175 213.531 102.414 214.289 101.783 215.151Z" fill="#FBBEBE"/>
<path d="M85.152 179.893C84.9501 180.327 84.8901 180.814 84.9803 181.285C85.1938 182.213 86.1451 182.747 87.0036 183.169L95.1661 187.16C95.7323 187.422 96.2838 187.714 96.8181 188.037C98.2102 188.89 99.3053 190.097 100.493 191.201C101.681 192.306 103.004 193.341 104.577 193.73C106.147 194.075 107.789 193.86 109.217 193.123C109.987 192.739 110.702 192.254 111.343 191.679C111.897 191.193 112.409 190.661 112.874 190.088C113.273 189.666 113.559 189.151 113.705 188.589C113.858 187.74 113.435 186.904 112.944 186.204C112.66 185.8 112.35 185.415 112.015 185.053C108.92 181.633 103.848 179.86 99.4863 179.164C97.7508 178.886 96.1034 178.236 94.4329 177.707C92.7623 177.178 90.9943 176.779 89.2588 177.025C87.5233 177.271 85.8156 178.269 85.152 179.893Z" fill="#3F3D56"/>
<path opacity="0.1" d="M85.152 179.893C84.9501 180.327 84.8901 180.814 84.9803 181.285C85.1938 182.213 86.1451 182.747 87.0036 183.169L95.1661 187.16C95.7323 187.422 96.2838 187.714 96.8181 188.037C98.2102 188.89 99.3053 190.097 100.493 191.201C101.681 192.306 103.004 193.341 104.577 193.73C106.147 194.075 107.789 193.86 109.217 193.123C109.987 192.739 110.702 192.254 111.343 191.679C111.897 191.193 112.409 190.661 112.874 190.088C113.273 189.666 113.559 189.151 113.705 188.589C113.858 187.74 113.435 186.904 112.944 186.204C112.66 185.8 112.35 185.415 112.015 185.053C108.92 181.633 103.848 179.86 99.4863 179.164C97.7508 178.886 96.1034 178.236 94.4329 177.707C92.7623 177.178 90.9943 176.779 89.2588 177.025C87.5233 177.271 85.8156 178.269 85.152 179.893Z" fill="black"/>
<path d="M105.579 182.44C106.207 183.145 106.723 183.942 107.11 184.802C107.459 185.366 107.583 186.04 107.458 186.691C107.276 187.129 106.983 187.513 106.609 187.805L105.797 188.556C105.552 188.811 105.267 189.024 104.952 189.187C104.508 189.354 104.034 189.425 103.56 189.396C102.47 189.396 101.296 189.396 100.41 188.742C99.1984 187.87 98.9803 186.064 99.5325 184.677C100.085 183.289 101.24 182.241 102.405 181.303C103.352 180.538 104.915 181.74 105.579 182.44Z" fill="#FBBEBE"/>
<path d="M110.535 187.238C110.385 188.008 110.458 188.805 110.744 189.535C110.948 190.232 111.148 190.928 111.347 191.638C111.347 191.638 111.347 191.638 111.347 191.665C111.902 191.179 112.414 190.647 112.879 190.074C113.278 189.652 113.564 189.137 113.709 188.575C113.863 187.726 113.44 186.89 112.948 186.19C112.665 185.786 112.355 185.401 112.02 185.039C111.802 185.322 111.612 185.6 111.454 185.781C111.048 186.196 110.735 186.693 110.535 187.238Z" fill="#FBBEBE"/>
<path d="M89.2125 152.653C88.252 156.69 88.6603 160.913 89.1708 165.034C89.5606 168.171 89.9968 171.419 89.0687 174.44C88.7253 175.568 88.1824 176.714 88.3912 177.879C88.7856 180.074 91.4307 180.918 93.621 181.331C94.2528 181.492 94.9095 181.531 95.556 181.447C96.2046 181.271 96.8066 180.954 97.3194 180.519C100.433 178.256 102.797 175.112 104.108 171.493C104.939 169.071 105.203 166.496 105.459 163.948C105.886 159.66 106.317 155.322 105.691 151.062C105.505 149.809 105.227 148.57 105.111 147.308C104.965 145.112 105.086 142.907 105.473 140.741C106.272 135.376 107.482 130.079 109.092 124.899C104.673 125.486 100.182 124.674 96.2474 122.579C97.0085 122.987 96.1361 129.498 96.0433 130.412C95.7617 133.137 95.2699 135.837 94.5722 138.486C93.2776 143.437 90.3866 147.734 89.2125 152.653Z" fill="#3F3D56"/>
<path opacity="0.1" d="M89.2125 152.653C88.252 156.69 88.6603 160.913 89.1708 165.034C89.5606 168.171 89.9968 171.419 89.0687 174.44C88.7253 175.568 88.1824 176.714 88.3912 177.879C88.7856 180.074 91.4307 180.918 93.621 181.331C94.2528 181.492 94.9095 181.531 95.556 181.447C96.2046 181.271 96.8066 180.954 97.3194 180.519C100.433 178.256 102.797 175.112 104.108 171.493C104.939 169.071 105.203 166.496 105.459 163.948C105.886 159.66 106.317 155.322 105.691 151.062C105.505 149.809 105.227 148.57 105.111 147.308C104.965 145.112 105.086 142.907 105.473 140.741C106.272 135.376 107.482 130.079 109.092 124.899C104.673 125.486 100.182 124.674 96.2474 122.579C97.0085 122.987 96.1361 129.498 96.0433 130.412C95.7617 133.137 95.2699 135.837 94.5722 138.486C93.2776 143.437 90.3866 147.734 89.2125 152.653Z" fill="black"/>
<path d="M113.306 128.996C115.162 134.375 114.754 140.249 113.951 145.883C113.148 151.516 111.965 157.15 112.313 162.825C112.447 165.053 112.809 167.34 112.16 169.47C111.799 170.509 111.321 171.504 110.735 172.435L95.9276 198.041C95.55 198.706 95.013 199.266 94.3649 199.671C93.7168 200.076 92.978 200.313 92.2152 200.362C90.6328 200.473 89.0783 199.953 87.6026 199.373C86.6221 199.048 85.7109 198.543 84.9158 197.884C84.5217 197.555 84.2129 197.137 84.0157 196.663C83.8185 196.189 83.7389 195.675 83.7836 195.164C84.4471 190.719 85.4448 186.167 86.1827 181.707C86.6845 178.681 87.7789 175.784 89.4031 173.183C90.5493 171.326 91.96 169.66 92.9484 167.73C95.7884 162.199 94.8046 155.451 92.6143 149.632C90.424 143.813 87.1618 138.412 85.4216 132.463C84.9057 130.807 84.6109 129.091 84.5446 127.358C84.5232 125.569 84.8548 123.793 85.5204 122.132C86.1861 120.471 87.1728 118.958 88.424 117.678C88.7891 117.265 89.2494 116.946 89.7651 116.75C90.3679 116.61 90.9959 116.622 91.5934 116.783C99.8395 118.384 110.582 121.052 113.306 128.996Z" fill="#3F3D56"/>
<path d="M246.407 48.703C246.676 50.7355 245.943 52.7912 244.899 54.5499C240.95 61.1394 231.846 64.0536 224.806 60.9862C221.906 59.7194 219.451 57.6312 217.047 55.5708C216.24 54.8748 215.4 54.1462 214.992 53.1625C214.272 51.4223 215.14 49.348 216.555 48.1044C217.971 46.8608 219.804 46.2482 221.627 45.696C227.646 43.8213 244.973 37.9094 246.407 48.703Z" fill="#FBBEBE"/>
<path d="M242.886 42.2528C248.366 46.6612 256.343 50.8608 262.552 54.1276C264.663 55.2413 267.006 56.4942 267.768 58.768C268.176 59.9838 268.041 61.3063 267.907 62.5871C267.647 65.0511 267.378 67.5523 266.426 69.84C265.308 72.5175 263.331 74.7263 261.744 77.1579C258.96 81.4178 257.327 86.4387 253.888 90.202C256.208 97.9097 258.747 105.608 259.573 113.608C259.618 113.828 259.594 114.057 259.503 114.262C259.408 114.398 259.284 114.51 259.141 114.592L253.368 118.379C252.739 118.746 252.176 119.216 251.702 119.771C250.681 121.098 250.816 122.963 250.185 124.508C249.839 125.263 249.344 125.939 248.73 126.497C248.116 127.056 247.396 127.484 246.612 127.757C245.034 128.3 243.354 128.478 241.698 128.276C239.589 128.144 237.559 127.429 235.832 126.211C234.361 125.098 233.312 123.534 232.301 121.993C231.551 120.943 230.928 119.807 230.445 118.611C229.827 116.903 229.79 115.042 229.813 113.223C229.829 109.762 230.16 106.309 230.802 102.907C231.071 101.557 231.405 100.225 231.619 98.8657C232.045 96.1278 231.962 93.3343 232.278 90.5826C232.709 87.4875 233.399 84.4342 234.342 81.4549C234.859 79.6096 235.261 77.7345 235.549 75.84C236.092 72.5082 237.173 69.2924 238.254 66.0952L240.111 60.6149C240.505 59.4316 240.904 58.2529 241.373 57.0975C242.245 54.9397 243.368 52.8376 243.665 50.536C243.995 48.0255 241.285 45.0464 242.199 42.689C242.273 42.4292 242.677 42.0858 242.886 42.2528Z" fill="#3F3D56"/>
<path d="M266.282 57.4734C267.567 58.0535 268.277 59.4363 268.737 60.7728C269.772 63.7847 270.021 67.0112 269.46 70.1464C269.279 70.9346 269.155 71.7349 269.089 72.5409C269.099 73.4752 269.19 74.4069 269.363 75.3252C269.827 78.8751 269.363 82.4807 269.516 86.0631C269.674 90.091 270.551 94.3463 268.862 98.0076C267.739 100.439 265.614 102.249 263.516 103.892C255.707 109.978 247.091 114.95 237.915 118.667C239.497 116.764 239.525 113.901 238.472 111.66C237.418 109.418 235.46 107.734 233.367 106.425C236.031 105.833 238.611 104.912 241.047 103.683C245.91 101.214 250.077 97.5992 254.193 94.0215C254.801 93.5849 255.273 92.9869 255.558 92.2952C255.975 90.9031 254.825 89.5806 254.026 88.3601C251.609 84.6478 252.17 79.7985 253.182 75.5015C254.309 70.7915 255.966 66.1 258.987 62.3134C260.871 59.9468 263.33 58.1277 266.282 57.4734Z" fill="#3F3D56"/>
<path d="M237.507 118.783C237.089 119.463 236.548 120.058 235.91 120.537C234.518 121.465 232.606 121.112 231.052 120.453C229.607 119.841 228.274 118.992 227.107 117.943C226.606 117.41 226.013 116.97 225.358 116.644C224.142 116.18 222.444 116.528 221.762 115.409C221.682 115.292 221.643 115.152 221.65 115.01C221.692 114.606 222.221 114.495 222.629 114.472C224.524 114.347 226.363 113.779 227.998 112.815C227.476 112.438 227.029 111.965 226.68 111.423C226.536 111.234 226.458 111.002 226.458 110.764C226.514 110.505 226.657 110.273 226.861 110.105C228.353 108.698 230.23 107.766 232.253 107.429C234.276 107.091 236.354 107.364 238.221 108.212C238.586 108.359 238.906 108.599 239.149 108.908C239.321 109.193 239.436 109.508 239.488 109.836C239.79 111.135 240.88 113.084 240.486 114.398C240.05 115.906 238.402 117.507 237.507 118.783Z" fill="#FBBEBE"/>
<path d="M205.863 112.931C211.636 106.263 214.216 97.4879 216.611 89.0005L218.323 82.9679L222.453 68.4388C223.061 66.2949 223.669 64.151 224.072 61.9654C224.764 58.1927 224.829 54.3365 224.787 50.5035C224.728 48.9145 224.364 47.3517 223.715 45.9002C223.311 44.8978 223.116 43.8305 222.787 42.7957C222.368 41.353 221.741 39.979 220.926 38.7168C220.699 38.3415 220.416 38.0035 220.086 37.7145C219.515 37.3264 218.868 37.0638 218.188 36.9441C216.713 36.5055 215.184 36.2728 213.645 36.2527C212.105 36.3084 210.518 36.8421 209.525 38.0114C208.768 38.9071 208.42 40.0672 207.822 41.0741C207.543 41.4864 207.29 41.9157 207.065 42.3595C206.81 43.0338 206.669 43.7457 206.648 44.4663C206.406 47.3898 206.2 50.3163 206.03 53.246C205.951 54.5778 205.882 55.9189 205.933 57.2553C205.975 58.2948 206.086 59.3296 206.197 60.3644L207.297 70.4991C207.552 72.8797 207.371 75.1071 207.585 77.4922C208.105 83.251 206.866 89.0098 205.594 94.6618C204.986 97.3486 204.36 100.073 203.06 102.504C201.914 104.657 200.197 106.843 200.652 109.242C200.81 110.077 201.232 110.857 201.297 111.701C201.265 112.225 201.317 112.749 201.45 113.256C201.64 113.601 201.934 113.876 202.29 114.043C202.646 114.21 203.046 114.259 203.432 114.184C204.351 114.023 205.199 113.586 205.863 112.931Z" fill="#3F3D56"/>
<path d="M206.569 86.2441C206.745 87.5759 206.61 88.9262 206.675 90.2673C206.821 91.9946 207.132 93.7039 207.603 95.3718C208.067 97.228 208.661 99.3069 210.299 100.337C210.71 100.551 211.103 100.797 211.473 101.075C211.656 101.219 211.79 101.415 211.858 101.637C211.926 101.859 211.925 102.097 211.854 102.319L210.578 102.105C210.723 102.216 210.842 102.356 210.929 102.516C211.016 102.676 211.068 102.853 211.082 103.035C211.096 103.216 211.072 103.399 211.01 103.571C210.949 103.742 210.852 103.899 210.725 104.03C210.599 104.162 210.447 104.265 210.278 104.333C210.109 104.402 209.927 104.434 209.745 104.427C209.563 104.421 209.384 104.376 209.221 104.296C209.057 104.215 208.912 104.101 208.796 103.961C208.844 104.379 208.805 104.803 208.68 105.205C208.615 105.402 208.492 105.575 208.326 105.699C208.16 105.824 207.959 105.894 207.752 105.901C207.511 105.864 207.283 105.768 207.088 105.623L203.756 103.558C202.758 103.02 201.928 102.217 201.357 101.237L199.9 99.0424C199.579 98.6193 199.324 98.1499 199.144 97.6503C198.601 95.7941 200.118 93.7337 199.329 91.9843C199.093 91.5531 198.814 91.146 198.499 90.7685C196.814 88.4483 196.921 85.2928 197.107 82.4157C197.167 81.4459 197.343 80.295 198.22 79.8728C198.916 79.534 199.752 79.8356 200.397 80.2579C201.042 80.6802 201.613 81.2371 202.346 81.4876C202.81 81.6454 203.32 81.664 203.784 81.831C204.434 82.0584 205.037 82.9447 205.473 83.4691C206.09 84.2738 206.47 85.235 206.569 86.2441Z" fill="#FBBEBE"/>
<path d="M165.905 44.5406C165.51 45.4454 164.957 46.2721 164.271 46.9815C163.926 47.3359 163.503 47.6046 163.036 47.7658C162.568 47.927 162.07 47.9762 161.58 47.9096C160.549 47.7054 159.793 46.8562 159.111 46.0534C157.329 43.9605 155.524 41.8399 154.327 39.3619C152.498 35.5892 152.206 31.2829 151.942 27.1019C151.877 26.0253 151.821 24.8837 152.336 23.9417C152.99 22.7399 154.378 22.1737 155.659 21.6958L162.735 19.0507C163.169 18.8453 163.649 18.7573 164.127 18.7955C165.236 18.9811 165.645 20.3176 165.946 21.3988C166.486 23.3417 167.383 25.1671 168.591 26.7817C170.178 28.8977 173.738 31.7469 171.705 34.3873C169.25 37.5521 167.691 40.9675 165.905 44.5406Z" fill="#BE6F72"/>
<path d="M174.958 32.4662C178.058 35.3805 179.106 39.9189 178.958 44.1649C178.809 48.4109 177.631 52.5502 176.958 56.7452C176.285 60.9402 176.151 65.4183 177.974 69.2745C178.601 70.597 179.454 71.8221 179.891 73.2189C180.256 74.5994 180.38 76.0328 180.257 77.4556C180.25 78.9556 179.963 80.441 179.413 81.8362C178.424 84.0265 176.392 85.5486 174.447 86.9408C170.48 89.8086 166.433 92.7228 161.774 94.2217C158.619 95.2379 155.278 95.572 151.974 95.753C149.737 95.9313 147.487 95.8675 145.264 95.5628C141.375 94.9146 137.801 93.0225 135.078 90.1705C134.604 89.7108 134.213 89.1723 133.923 88.5788C133.639 87.8066 133.502 86.9883 133.519 86.1658C133.407 83.1186 133.426 80.0713 133.575 77.0241C133.66 74.12 134.06 71.2338 134.767 68.416C135.653 65.1677 137.189 62.1235 138.354 58.9587C142.41 47.9561 142.002 35.4362 147.635 25.1621C148.851 22.944 150.883 20.6098 153.389 20.9625C153.871 20.9915 154.325 21.2001 154.661 21.5472C154.949 21.9696 155.11 22.4655 155.125 22.9765C155.723 27.9696 156.573 33.0927 158.925 37.5986C159.853 39.3666 161.245 42.0581 163.385 42.5314C165.524 43.0048 166.786 40.963 167.932 39.5151C169.946 36.8601 172.31 34.4891 174.958 32.4662Z" fill="#E3E8F4"/>
<path d="M189.794 24.9533C190.426 25.295 191.016 25.7093 191.553 26.1876C192.945 27.5055 193.455 29.5241 193.446 31.4359C193.437 33.3478 192.982 35.2318 192.703 37.1251C191.956 42.2295 192.592 47.4546 192.889 52.624C192.98 53.4586 192.929 54.3025 192.741 55.1205C192.513 55.9001 192.044 56.5869 191.743 57.3433C190.857 59.58 191.525 62.1322 191.005 64.4802C190.448 66.9814 188.541 69.2552 188.898 71.7935C189.042 72.7866 189.52 73.7007 189.724 74.6845C189.928 75.6682 189.752 76.8562 188.903 77.3852C188.054 77.9142 186.819 77.529 185.808 77.8214C185.397 77.9731 184.997 78.153 184.61 78.3597C183.047 79.065 181.181 78.8237 179.641 78.0534C178.131 77.2293 176.773 76.1526 175.627 74.8701C173.859 73.0603 172.146 71.0789 171.371 68.6705C170.239 65.1809 171.246 61.3804 172.476 57.9187C173.705 54.457 175.172 50.9581 174.954 47.2783C174.833 45.2179 174.183 43.2365 173.794 41.2133C173.311 38.4101 173.138 35.5623 173.279 32.7213C173.339 30.6424 173.478 28.4986 174.374 26.6192C175.012 25.3656 175.955 24.2923 177.116 23.4977C178.277 22.7032 179.619 22.2128 181.019 22.0716C184.267 21.7189 187.051 23.3756 189.794 24.9533Z" fill="#3F3D56"/>
<path opacity="0.1" d="M181.018 69.8078C181.051 71.2926 181.317 72.7631 181.807 74.1651C182.638 72.2719 182.735 70.1465 182.847 68.0862C183.311 60.991 184.884 54.2995 186.559 47.427C185.339 48.3551 184.652 50.6753 184.067 52.0674C181.747 57.6813 180.705 63.7413 181.018 69.8078Z" fill="black"/>
<path d="M149.737 20.3685C147.5 20.9579 145.561 22.2851 143.394 23.1528C141.143 24.0809 138.721 24.4754 136.359 25.0461C130.892 26.3733 125.403 28.8374 122.103 33.399C119.672 36.7541 118.665 40.898 116.999 44.6985C115.607 47.8865 113.751 50.875 112.725 54.193C111.384 58.5225 111.537 63.163 111.867 67.6828C112.136 71.3952 112.544 75.1493 114.229 78.4394C115.11 80.1657 116.326 81.711 117.208 83.4372C118.266 85.5115 118.823 87.7993 119.704 89.9339C120.586 92.0685 121.881 94.2031 123.927 95.3168L127.315 93.3353C132.368 90.3794 137.421 87.4187 142.317 84.2075C146.586 81.4232 150.893 78.226 153.166 73.6505C155.18 69.6086 155.38 64.8846 154.86 60.3973C154.34 55.9099 153.152 51.52 152.54 47.0466C151.76 41.4163 151.877 35.6978 152.888 30.1043C153.352 27.5798 154.586 24.9719 154.842 22.4568C155.125 19.7699 151.672 19.8581 149.737 20.3685Z" fill="#3F3D56"/>
<path d="M128.794 94.1375C131.388 96.5923 135.119 97.3069 138.363 98.778C140.773 99.897 142.943 101.473 144.752 103.418C145.75 104.514 146.715 106.003 146.214 107.395C145.792 108.592 144.497 109.205 143.309 109.65C141.834 110.207 140.186 110.699 138.715 110.138C137.852 109.808 137.156 109.149 136.363 108.681C134.418 107.525 131.968 107.521 129.973 106.453C127.161 104.95 125.759 101.641 123.114 99.8545C121.666 98.8801 119.666 98.0819 119.518 96.3417C119.511 95.7125 119.644 95.0895 119.908 94.518C120.441 93.0981 121.351 88.221 123.383 88.3509C125.597 88.4948 127.147 92.9635 128.794 94.1375Z" fill="#FBBEBE"/>
<path d="M115.204 72.3878C116.053 75.4412 118.025 78.0445 120.072 80.4668C121.543 82.2069 123.158 84.1002 123.209 86.3787C123.255 88.5318 121.816 90.5133 119.96 91.6131C118.104 92.7129 115.918 93.0655 113.77 93.2047C112.051 93.3702 110.317 93.2495 108.638 92.8474C104.396 91.6966 101.454 87.9982 98.1178 85.1397C96.1363 83.4459 93.9089 81.9703 92.3915 79.8496C90.8741 77.7289 90.2337 74.6848 91.7279 72.5455C92.2671 71.8521 92.8906 71.2286 93.5841 70.6894C96.1182 68.4921 98.2793 65.8985 99.9832 63.0095C100.67 61.8447 101.329 60.5825 102.484 59.8818C104.141 58.8748 106.266 59.3342 108.141 59.8261C110.178 60.3598 115.918 61.4039 116.318 64.0025C116.48 65.0698 115.157 66.7311 114.958 67.8773C114.704 69.3804 114.788 70.9212 115.204 72.3878Z" fill="#FBBEBE"/>
<path d="M125.695 78.207C126.303 79.3087 126.803 80.4664 127.189 81.6641C128.605 86.5829 126.076 91.6503 124.869 96.6248C123.328 102.996 123.983 109.66 123.909 116.217C123.876 119.214 123.556 122.514 121.398 124.593C120.841 125.122 120.173 125.567 119.797 126.235C119.565 126.725 119.392 127.241 119.282 127.771C118.953 128.918 118.368 129.975 117.573 130.864C116.777 131.753 115.791 132.451 114.688 132.905C113.585 133.359 112.393 133.559 111.202 133.488C110.012 133.417 108.852 133.077 107.811 132.495C106.052 131.516 104.525 129.818 102.512 129.767C101.878 129.797 101.248 129.867 100.623 129.976C98.6182 130.175 96.6553 129.433 94.7759 128.704C94.3274 128.562 93.9089 128.339 93.5416 128.045C93.2028 127.734 92.9847 127.317 92.6738 126.983C91.5276 125.748 89.5694 125.962 87.9174 125.618C86.6848 125.342 85.556 124.722 84.6629 123.829C83.7698 122.935 83.149 121.807 82.8732 120.574C82.5391 118.978 82.8222 117.326 83.1006 115.716L84.3442 108.541C84.8661 105.91 85.2272 103.249 85.4255 100.574C85.5779 97.5504 85.3188 94.5204 84.6551 91.5668C84.1076 89.1537 83.2909 86.7918 82.9939 84.3323C82.4764 79.9246 83.6359 75.4835 86.2422 71.8913C86.8872 71.005 87.7317 70.1187 88.8269 70.0352C89.7132 69.9563 90.5439 70.4296 91.3142 70.8844C98.0057 74.8442 104.744 78.7221 111.528 82.5179C113.384 83.562 115.282 84.6108 117.352 85.1258C117.973 85.2836 118.864 85.2187 118.953 84.5876C118.964 84.347 118.9 84.1089 118.772 83.9054C117.611 81.6734 115.932 79.7569 114.595 77.6316C113.259 75.5062 112.229 72.9911 112.623 70.5224C113.161 67.1071 116.335 64.8472 118.929 67.5247C121.839 70.5642 123.788 74.4714 125.695 78.207Z" fill="white"/>
<path d="M104.915 121.516C110.358 121.864 115.922 122.235 120.962 124.324C122.581 124.992 124.298 125.855 126.001 125.442C126.849 125.184 127.637 124.761 128.321 124.198C130.42 122.66 132.402 120.969 134.252 119.14C134.066 118.124 132.688 117.985 131.658 117.994C129.146 118.009 126.668 117.413 124.437 116.258C123.704 115.817 122.926 115.455 122.117 115.177C119.913 114.569 117.667 115.729 115.454 116.296C112.177 117.131 108.725 116.644 105.379 116.152L96.3489 114.82C95.509 114.699 94.5623 114.602 93.8941 115.122C93.4474 115.544 93.1412 116.093 93.017 116.695C91.9126 120.407 92.4416 120.718 96.1169 120.95L104.915 121.516Z" fill="#FBBEBE"/>
<path opacity="0.1" d="M228.22 57.0882C236.422 57.0882 243.07 50.44 243.07 42.2389C243.07 34.0378 236.422 27.3895 228.22 27.3895C220.019 27.3895 213.371 34.0378 213.371 42.2389C213.371 50.44 220.019 57.0882 228.22 57.0882Z" fill="black"/>
<path d="M228.115 56.4433C236.316 56.4433 242.964 49.795 242.964 41.5939C242.964 33.3928 236.316 26.7446 228.115 26.7446C219.914 26.7446 213.266 33.3928 213.266 41.5939C213.266 49.795 219.914 56.4433 228.115 56.4433Z" fill="#FBBEBE"/>
<path d="M240.648 22.7398C241.836 23.473 243.08 24.2619 243.729 25.4962C244.079 26.3342 244.345 27.2047 244.523 28.0949C245.335 30.8791 247.497 33.2968 247.627 36.1971C247.771 39.3758 245.386 42.1368 242.685 43.8027C242.069 44.2571 241.326 44.507 240.56 44.5174C239.776 44.4663 239.098 43.9744 238.379 43.6589C235.33 42.3039 231.919 44.0208 228.69 44.8097C225.333 45.6202 221.812 45.4135 218.574 44.2157C216.833 43.5661 215.144 42.5916 214.054 41.0835C212.963 39.5753 212.574 37.4639 213.502 35.8444C213.966 35.0184 214.736 34.2713 214.685 33.3293C214.657 32.7632 214.323 32.2527 214.221 31.6959C214.072 30.8095 214.536 29.9464 215.01 29.19C217.157 25.734 219.871 22.6641 223.038 20.1087C223.966 19.3477 225.038 18.6052 226.254 18.5495C228.694 18.4428 230.792 20.2618 233.302 20.2711C236.152 20.2804 238.198 21.227 240.648 22.7398Z" fill="#3F3D56"/>
<path opacity="0.1" d="M173.45 38.4571C181.908 38.4571 188.764 31.601 188.764 23.1436C188.764 14.6862 181.908 7.83014 173.45 7.83014C164.993 7.83014 158.137 14.6862 158.137 23.1436C158.137 31.601 164.993 38.4571 173.45 38.4571Z" fill="black"/>
<path d="M173.719 38.0813C182.176 38.0813 189.032 31.2252 189.032 22.7677C189.032 14.3103 182.176 7.45423 173.719 7.45423C165.261 7.45423 158.405 14.3103 158.405 22.7677C158.405 31.2252 165.261 38.0813 173.719 38.0813Z" fill="#BE6F72"/>
<path d="M181.901 31.4172C184.063 32.6284 186.731 32.5031 189.144 31.9509C190.513 31.6937 191.81 31.1462 192.949 30.3453C193.515 29.941 193.982 29.4135 194.314 28.8025C194.646 28.1916 194.835 27.5132 194.866 26.8186C194.866 25.264 193.845 23.8626 193.72 22.3081C193.567 20.3499 194.843 18.5401 194.977 16.5726C195.112 14.605 194.142 12.8324 193.195 11.1433C191.567 8.24306 189.873 5.30568 187.395 3.08757C184.917 0.869459 181.483 -0.545864 178.235 0.201241C176.638 0.567832 175.158 1.42631 173.529 1.59336C172.081 1.72793 170.652 1.29174 169.209 1.10612C167.766 0.920503 166.146 1.03651 165.111 2.0342C164.545 2.59105 164.183 3.37527 163.52 3.78363C163.07 3.99118 162.604 4.1634 162.128 4.29871C160.452 4.97157 159.687 6.86021 159.093 8.5586L155.111 19.9693C156.443 20.8974 158.049 21.3197 159.506 22.0343C160.963 22.7489 162.378 23.8905 162.675 25.4868C162.903 26.6979 162.471 28.09 163.176 29.1017C163.821 30.0297 165.135 30.1875 166.248 30.0297C167.362 29.872 168.48 29.4868 169.594 29.6585C172.378 30.0808 173.413 31.7884 175.989 29.6585C178.564 27.5286 179.506 30.0715 181.901 31.4172Z" fill="#3F3D56"/>
<path opacity="0.1" d="M108.642 71.223C116.331 71.223 122.563 64.9903 122.563 57.3017C122.563 49.6132 116.331 43.3804 108.642 43.3804C100.953 43.3804 94.7207 49.6132 94.7207 57.3017C94.7207 64.9903 100.953 71.223 108.642 71.223Z" fill="black"/>
<path d="M109.18 70.4666C116.869 70.4666 123.101 64.2339 123.101 56.5453C123.101 48.8568 116.869 42.6241 109.18 42.6241C101.492 42.6241 95.2588 48.8568 95.2588 56.5453C95.2588 64.2339 101.492 70.4666 109.18 70.4666Z" fill="#FBBEBE"/>
<path d="M119.839 42.9349C116.524 40.3921 112.8 38.4336 108.827 37.1437C106.284 36.3177 103.518 35.7516 100.938 36.5126C97.4395 37.5103 92.7573 38.9999 90.5902 41.928C89.5229 43.3665 88.4417 44.8468 87.9266 46.5684C86.8965 50.0302 88.3628 53.7193 88.2654 57.3296C88.1494 61.5384 85.9173 65.3807 83.4811 68.8146C81.0449 72.2485 80.553 77.1674 79.1145 81.1303C78.6226 82.49 78.4648 84.3786 79.7316 85.0608C80.8453 85.6779 82.1911 84.9076 83.2212 84.1652L89.4162 79.6871C89.8977 79.2913 90.4529 78.9948 91.0496 78.8147C92.3258 78.5178 93.574 79.3159 94.6413 80.0723L107.635 89.2604C107.891 88.736 108.03 88.1617 108.04 87.5779C108.051 86.9942 107.933 86.4153 107.695 85.8821C108.915 86.258 109.802 87.2743 110.874 87.9982C111.946 88.7221 113.574 88.9587 114.354 87.9471C115.133 86.9355 114.544 85.5759 113.676 84.7591C112.809 83.9424 111.667 83.4552 110.818 82.6153C109.133 80.9401 108.962 78.295 107.899 76.179C107.138 74.694 105.908 73.4504 105.37 71.868C104.493 69.2833 105.639 66.499 106.762 64.0118C108.103 61.0605 109.621 57.9096 112.475 56.369C113.435 55.8493 114.498 55.543 115.482 55.0697C117.932 53.8956 120.99 51.1253 122.187 48.6427C123.236 46.4385 121.621 44.3085 119.839 42.9349Z" fill="#3F3D56"/>
<path opacity="0.1" d="M98.7671 88.9402C100.099 89.7894 101.602 90.3323 102.911 91.2187C104.22 92.105 105.366 93.4507 105.403 95.0285C105.44 96.5366 104.475 97.8591 103.547 99.0563L92.2426 113.892L98.006 115.419C97.0779 116.699 96.8413 118.333 96.3587 119.836C95.8761 121.34 94.9665 122.904 93.4259 123.298C92.0338 123.655 90.5767 122.922 89.1382 123.006C88.0755 123.071 87.0732 123.572 86.0105 123.614C84.6416 123.665 83.3701 122.945 82.2286 122.184C79.6856 120.481 77.1612 118.04 77.1798 114.978C77.24 113.942 77.4478 112.92 77.797 111.943C79.4629 106.509 81.1891 100.945 84.6416 96.4252C86.4978 94.0122 88.7669 91.975 91.0361 89.9518C91.552 89.4324 92.1593 89.0124 92.8273 88.7128C94.3123 88.156 95.9318 88.8428 97.4677 89.2882C99.0037 89.7337 100.939 89.7987 101.825 88.4854" fill="black"/>
<path d="M98.2801 88.026C99.6119 88.8706 101.115 89.4182 102.424 90.3045C103.733 91.1908 104.879 92.5365 104.921 94.1096C104.962 95.6828 103.992 96.945 103.064 98.1422L91.7556 112.964L97.519 114.49C96.591 115.771 96.3543 117.4 95.8717 118.908C95.3891 120.416 94.4796 121.975 92.9389 122.37C91.5468 122.727 90.0897 121.994 88.6512 122.078C87.5885 122.138 86.5862 122.644 85.5235 122.681C84.1546 122.732 82.8831 122.013 81.7416 121.252C79.1986 119.553 76.6742 117.108 76.6974 114.05C76.753 113.014 76.9594 111.991 77.31 111.015C78.9759 105.576 80.7021 100.012 84.1546 95.4971C86.0108 93.0795 88.2846 91.0423 90.5491 89.0005C91.0675 88.484 91.6741 88.0644 92.3403 87.7615C93.8253 87.2047 95.4448 87.8915 96.9807 88.3416C98.5167 88.7917 100.452 88.852 101.338 87.5388" fill="white"/>
<g opacity="0.1">
<path opacity="0.1" d="M214.536 38.0068C215.627 39.5149 217.321 40.494 219.056 41.1391C222.294 42.3415 225.817 42.5484 229.172 41.733C232.421 40.9442 235.813 39.2272 238.862 40.5822C239.581 40.9024 240.254 41.3896 241.038 41.4453C241.805 41.4315 242.549 41.1802 243.168 40.7261C245.047 39.566 246.774 37.8768 247.6 35.8861C247.6 35.9882 247.6 36.0903 247.627 36.197C247.771 39.3757 245.386 42.1368 242.685 43.8027C242.069 44.257 241.326 44.5069 240.56 44.5173C239.776 44.4663 239.098 43.9744 238.379 43.6588C235.33 42.3038 231.919 44.0208 228.69 44.8096C225.333 45.6202 221.812 45.4134 218.574 44.2157C216.833 43.566 215.144 42.5915 214.054 41.0834C212.963 39.5752 212.574 37.4638 213.502 35.8443L213.571 35.7283C213.721 36.5496 214.051 37.3275 214.536 38.0068Z" fill="black"/>
<path opacity="0.1" d="M215.154 30.2526C215.191 30.9673 214.759 31.5659 214.346 32.1738C214.289 32.0231 214.244 31.8679 214.212 31.7097C214.073 30.8791 214.472 30.0717 214.912 29.3431C215.039 29.6322 215.12 29.9389 215.154 30.2526Z" fill="black"/>
</g>
<path opacity="0.1" d="M160.178 7.04584L156.197 18.452C157.529 19.38 159.134 19.8069 160.591 20.5169C162.048 21.2269 163.464 22.3731 163.761 23.9694C163.988 25.1805 163.556 26.5727 164.262 27.5889C164.907 28.517 166.22 28.6701 167.334 28.517C168.447 28.3638 169.566 27.9741 170.679 28.1457C173.464 28.568 174.499 30.2757 177.074 28.1689C179.649 26.0622 180.582 28.5634 182.977 29.9091C185.139 31.1249 187.807 30.9996 190.22 30.4427C191.588 30.187 192.886 29.6411 194.025 28.8418C194.188 28.7093 194.342 28.5684 194.49 28.4195C194.134 29.18 193.599 29.8426 192.93 30.3499C191.791 31.1508 190.494 31.6983 189.125 31.9555C186.712 32.5077 184.021 32.633 181.881 31.4219C179.487 30.0762 178.503 27.6214 175.979 29.6817C173.454 31.7421 172.359 30.0808 169.584 29.6817C168.471 29.51 167.357 29.8952 166.239 30.053C165.12 30.2107 163.812 30.053 163.167 29.1249C162.461 28.1133 162.893 26.7211 162.665 25.51C162.368 23.9137 160.953 22.7675 159.496 22.0575C158.039 21.3476 156.433 20.916 155.102 19.9926L159.102 8.55397C159.566 7.29643 160.076 5.93679 161.004 5.04119C160.683 5.68941 160.407 6.35925 160.178 7.04584Z" fill="black"/>
<g opacity="0.1">
<path opacity="0.1" d="M108.729 86.3833C109.754 86.8474 111.049 86.917 111.699 86.0492C112.427 85.1211 111.889 83.6826 111.021 82.8612C110.153 82.0399 109.012 81.5573 108.163 80.7173C106.478 79.0468 106.306 76.4017 105.244 74.2857C104.483 72.7961 103.253 71.5525 102.715 69.9701C101.838 67.39 102.984 64.6011 104.107 62.1185C105.448 59.1672 106.965 56.0163 109.819 54.4757C110.78 53.956 111.842 53.6497 112.826 53.1764C115.276 52.0024 118.334 49.2274 119.532 46.7448C120.539 44.6519 119.119 42.6194 117.43 41.2412C118.251 41.7749 119.054 42.3363 119.833 42.935C121.62 44.3271 123.23 46.4385 122.153 48.6334C120.956 51.116 117.898 53.8864 115.448 55.0604C114.464 55.5245 113.402 55.84 112.441 56.3597C109.587 57.9004 108.07 61.0512 106.729 64.0025C105.601 66.4898 104.455 69.274 105.337 71.8588C105.875 73.4412 107.105 74.6848 107.866 76.1697C108.942 78.2858 109.1 80.9308 110.784 82.606C111.634 83.4459 112.775 83.9285 113.643 84.7499C114.511 85.5712 115.035 86.9912 114.32 87.9379C113.606 88.8845 111.907 88.6896 110.84 87.9889C110.121 87.5017 109.467 86.8613 108.729 86.3833Z" fill="black"/>
<path opacity="0.1" d="M80.5849 82.2673L86.7799 77.7939C87.2613 77.3967 87.8164 77.0987 88.4134 76.9169C89.6895 76.6245 90.9377 77.4227 92.005 78.179L104.998 87.3671C105.255 86.842 105.394 86.2669 105.404 85.6824C105.415 85.0979 105.297 84.5182 105.059 83.9842C106.251 84.3555 107.119 85.3485 108.154 86.0446C108.003 85.9764 107.848 85.919 107.69 85.8729C107.928 86.406 108.046 86.985 108.035 87.5687C108.025 88.1525 107.886 88.7268 107.629 89.2511L94.6362 80.0631C93.5689 79.3067 92.3159 78.5085 91.0445 78.8055C90.4477 78.9856 89.8926 79.2821 89.411 79.6779L83.2161 84.1559C82.1859 84.8984 80.8402 85.6687 79.7265 85.0515C79.4218 84.8643 79.1718 84.6003 79.0016 84.2858C78.8314 83.9714 78.7469 83.6177 78.7566 83.2603C79.4139 83.0262 80.0307 82.6911 80.5849 82.2673Z" fill="black"/>
</g>
<path d="M235.358 112.574C235.358 112.574 208.769 114.704 203.479 110.936L227.804 107.186L235.358 112.574Z" fill="#E3E8F4"/>
<path opacity="0.1" d="M235.358 112.574C235.358 112.574 208.769 114.704 203.479 110.936L227.804 107.186L235.358 112.574Z" fill="black"/>
<path d="M235.358 112.574L227.91 107.859C227.91 107.859 205.692 114.244 199.604 111.609L205.799 102.917L227.813 107.21L235.358 112.574Z" fill="#E3E8F4"/>
<path d="M202.318 50.0581C201.497 51.0956 200.838 52.2519 200.364 53.4874C200.151 54.1417 200.044 54.8238 199.863 55.4874C199.354 57.1399 198.57 58.6946 197.543 60.0861C195.255 63.4133 192.397 66.6244 191.821 70.6198C191.543 72.592 191.849 74.5967 192.239 76.5503C192.45 77.8386 192.818 79.0962 193.334 80.2951C193.923 81.5666 194.801 82.685 195.473 83.9147C196.088 85.1217 196.606 86.3754 197.023 87.6641C197.817 86.8706 198.286 85.808 198.921 84.8799C199.557 83.9518 200.504 83.1165 201.622 83.1026C202.912 83.1026 203.975 84.1699 205.251 84.337C205.45 84.3771 205.657 84.3577 205.845 84.2813C206.309 84.0632 206.346 83.4367 206.309 82.9355C205.942 79.432 203.938 75.9749 204.884 72.5781C205.757 69.4365 208.875 67.4736 210.513 64.6569C211.701 62.6105 212.054 60.1974 212.369 57.8494C212.764 55.0419 213.163 52.2113 212.986 49.3852C212.898 47.9606 211.766 38.9582 209.696 39.9002C208.977 40.225 208.351 41.6032 207.9 42.2204L206.044 44.8515L202.318 50.0581Z" fill="#3F3D56"/>
<path d="M146.777 108.133L131.848 120.286L112.642 116.852L125.574 106.699L146.777 108.133Z" fill="#E3E8F4"/>
<path opacity="0.1" d="M147.315 107.377L132.386 119.53L113.18 116.096L126.113 105.943L147.315 107.377Z" fill="black"/>
<path d="M147.208 106.732L132.28 118.88L113.068 115.451L126.006 105.293L147.208 106.732Z" fill="#E3E8F4"/>
<path opacity="0.1" d="M147.64 105.326L132.707 117.479L113.5 114.045L126.438 103.892L147.64 105.326Z" fill="black"/>
<path d="M147.529 104.681L132.6 116.834L113.394 113.4L126.326 103.247L147.529 104.681Z" fill="#E3E8F4"/>
<path d="M343.898 270.738C344.25 270.567 344.638 270.484 345.03 270.497C345.421 270.511 345.803 270.619 346.143 270.813C346.483 271.008 346.77 271.282 346.979 271.613C347.189 271.943 347.315 272.32 347.346 272.711L348.176 283.481L343.248 284.372L340.649 276.585L343.898 270.738Z" fill="#3F3D56"/>
<path d="M171.483 198.547L96.0616 236.821C95.1967 237.263 94.4711 237.935 93.9656 238.764C93.46 239.593 93.1944 240.546 93.1983 241.517C93.2021 242.488 93.4753 243.439 93.9873 244.264C94.4994 245.089 95.2303 245.756 96.0987 246.19L258.537 327.709C261.427 329.156 264.628 329.871 267.86 329.79C271.091 329.709 274.252 328.835 277.066 327.245L345.485 288.664C346.315 288.191 347 287.5 347.466 286.665C347.932 285.831 348.161 284.885 348.129 283.93C348.097 282.975 347.805 282.047 347.284 281.246C346.763 280.444 346.034 279.8 345.174 279.383L176.118 198.496C175.393 198.149 174.598 197.973 173.794 197.982C172.991 197.991 172.2 198.184 171.483 198.547Z" fill="#3F3D56"/>
<path d="M95.5553 230.162L93.1934 231.917L93.0077 240.316C92.9928 240.971 93.1624 241.616 93.4972 242.179C93.832 242.742 94.3185 243.2 94.9011 243.499L260.114 328.28C260.489 328.473 260.908 328.567 261.329 328.552C261.751 328.537 262.161 328.414 262.522 328.194C262.882 327.975 263.18 327.666 263.386 327.299C263.593 326.931 263.701 326.516 263.701 326.094V313.894L95.5553 230.162Z" fill="#3F3D56"/>
<path d="M171.483 188.812L96.0617 227.081C95.1961 227.521 94.4695 228.193 93.9628 229.021C93.456 229.849 93.189 230.802 93.1914 231.773C93.1938 232.744 93.4656 233.695 93.9764 234.521C94.4872 235.347 95.2171 236.015 96.0849 236.45L258.537 317.969C261.427 319.415 264.629 320.129 267.86 320.048C271.09 319.967 274.252 319.094 277.066 317.505L345.485 278.919C346.315 278.446 347 277.755 347.466 276.92C347.932 276.086 348.161 275.14 348.129 274.185C348.097 273.23 347.805 272.302 347.284 271.501C346.763 270.699 346.034 270.056 345.174 269.639L176.118 188.756C175.393 188.41 174.598 188.234 173.794 188.244C172.99 188.254 172.199 188.448 171.483 188.812Z" fill="#E3E8F4"/>
<path d="M187.092 195.758L103.992 237.954L246.819 309.37L332.518 265.871L187.092 195.758Z" fill="#3F3D56"/>
<path d="M299.085 296.386C303.926 296.386 307.851 294.061 307.851 291.193C307.851 288.326 303.926 286.001 299.085 286.001C294.244 286.001 290.319 288.326 290.319 291.193C290.319 294.061 294.244 296.386 299.085 296.386Z" fill="#3F3D56"/>
<path d="M139.213 210.042C139.662 210.042 140.026 209.678 140.026 209.229C140.026 208.781 139.662 208.417 139.213 208.417C138.765 208.417 138.401 208.781 138.401 209.229C138.401 209.678 138.765 210.042 139.213 210.042Z" fill="#3F3D56"/>
<path d="M136.781 216.533C137.319 216.533 137.756 216.097 137.756 215.559C137.756 215.021 137.319 214.585 136.781 214.585C136.243 214.585 135.807 215.021 135.807 215.559C135.807 216.097 136.243 216.533 136.781 216.533Z" fill="#3F3D56"/>
<path fill-rule="evenodd" clip-rule="evenodd" d="M150.302 209.845L140.561 214.388L140.139 213.482L149.879 208.939L150.302 209.845Z" fill="#3F3D56"/>
<path d="M226.634 235.057L199.138 250.932C195.143 253.239 193.774 258.347 196.081 262.342C198.387 266.337 203.496 267.706 207.491 265.399L234.987 249.525C238.982 247.218 240.351 242.11 238.044 238.114C235.738 234.119 230.629 232.751 226.634 235.057Z" fill="white"/>
<path d="M251.228 247.586L223.732 263.462C219.737 265.769 218.368 270.878 220.674 274.873C222.981 278.869 228.089 280.237 232.085 277.931L259.581 262.055C263.576 259.748 264.945 254.639 262.638 250.644C260.332 246.648 255.223 245.279 251.228 247.586Z" fill="white"/>
<path d="M204.361 220.673L176.865 236.548C172.869 238.855 171.501 243.963 173.807 247.958C176.114 251.953 181.222 253.322 185.217 251.015L212.713 235.141C216.708 232.834 218.077 227.726 215.771 223.731C213.464 219.736 208.356 218.367 204.361 220.673Z" fill="white"/>
</svg>
